<svg xmlns="http://www.w3.org/2000/svg" width="39.834" height="60.89" viewBox="0 0 39.834 60.89">
  <g id="Gruppe_2" data-name="Gruppe 2" transform="translate(0.873)">
    <path id="Pfad_5" data-name="Pfad 5" d="M219.065,130.8l-7.452,13.353L204.16,130.8" transform="translate(-180.977 -85.318)" fill="none" stroke="#0a23fb" stroke-miterlimit="10" stroke-width="2"/>
    <path id="Pfad_6" data-name="Pfad 6" d="M208.7,130.8l-7.452,13.353L193.795,130.8" transform="translate(-193.795 -85.318)" fill="none" stroke="#0a23fb" stroke-miterlimit="10" stroke-width="2"/>
    <path id="Pfad_7" data-name="Pfad 7" d="M197.127,109.47v4.862a24.083,24.083,0,0,0,4.52,14.486l14.142,18.445a24.078,24.078,0,0,1,4.52,14.486v4.862" transform="translate(-189.674 -109.466)" fill="none" stroke="#0a23fb" stroke-miterlimit="10" stroke-width="2"/>
    <path id="Pfad_8" data-name="Pfad 8" d="M220.309,109.468v4.865a24.076,24.076,0,0,1-4.52,14.484l-14.144,18.454a24.085,24.085,0,0,0-4.518,14.484v4.865" transform="translate(-189.674 -109.468)" fill="none" stroke="#0a23fb" stroke-miterlimit="10" stroke-width="2"/>
  </g>
</svg>
