<svg xmlns="http://www.w3.org/2000/svg" width="289" height="155.829" viewBox="0 0 289 155.829">
  <g id="Gruppe_1" data-name="Gruppe 1" transform="translate(-86.221 -251.645)">
    <path id="Pfad_1" data-name="Pfad 1" d="M86.221,346.42l.092-.092,4.023-3.383a8.958,8.958,0,0,0,7.772,4.205c3.657,0,6.674-1.828,6.765-4.479.093-2.743-1.736-3.841-6.492-5.121-6.034-1.646-10.149-4.024-10.149-9.418,0-4.846,4.663-8.961,11.247-8.961,3.932,0,8.137,1.737,9.966,5.212l-4.022,3.382a6.69,6.69,0,0,0-6.036-3.382c-3.292,0-5.668,1.553-5.668,3.657,0,2.653,3.748,3.566,6.4,4.3,4.205,1.1,10.15,2.834,10.15,10.149,0,5.944-4.939,9.966-12.435,9.966-4.572,0-8.87-1.645-11.612-6.034" transform="translate(0 -21.374)" fill="blue"/>
    <rect id="Rechteck_2" data-name="Rechteck 2" width="5.578" height="32.001" transform="translate(142.254 271.124)" fill="blue"/>
    <path id="Pfad_2" data-name="Pfad 2" d="M256.306,432.819v32h5.487V450.739h11.064v-5.3H261.793v-7.314h14.538l-1.006-5.3Z" transform="translate(-53.836 -57.346)" fill="blue"/>
    <path id="Pfad_3" data-name="Pfad 3" d="M386.025,256.948c-5.852,0-9.508,4.937-9.508,11.338s3.657,11.337,9.508,11.337c5.943,0,9.508-4.937,9.508-11.337s-3.566-11.338-9.508-11.338m0,27.978c-9.051,0-15-7.405-15-16.64,0-9.144,5.944-16.641,15-16.641s14.994,7.5,14.994,16.641c0,9.235-5.943,16.64-14.994,16.64" transform="translate(-90.148 0)" fill="blue"/>
    <path id="Pfad_4" data-name="Pfad 4" d="M492.223,368.72v20.846l-14.9-20.846H473.2v32h5.487V379.784l15.087,20.937h3.932v-32Z" transform="translate(-122.489 -37.057)" fill="blue"/>
  </g>
</svg>
